<?xml version="1.0" encoding="UTF-8" standalone="no"?>
<!-- Created with Inkscape (http://www.inkscape.org/) -->

<svg
   xmlns:osb="http://www.openswatchbook.org/uri/2009/osb"
   xmlns:dc="http://purl.org/dc/elements/1.1/"
   xmlns:cc="http://creativecommons.org/ns#"
   xmlns:rdf="http://www.w3.org/1999/02/22-rdf-syntax-ns#"
   xmlns:svg="http://www.w3.org/2000/svg"
   xmlns="http://www.w3.org/2000/svg"
   xmlns:sodipodi="http://sodipodi.sourceforge.net/DTD/sodipodi-0.dtd"
   xmlns:inkscape="http://www.inkscape.org/namespaces/inkscape"
   width="12in"
   height="18in"
   viewBox="0 0 1080 1620"
   id="svg2"
   version="1.1"
   inkscape:version="0.92.2 5c3e80d, 2017-08-06"
   sodipodi:docname="poster.svg"
   inkscape:export-filename="/Users/pierce/Projects/madison-python/pair-night/flyer/madpy-pair-night.png"
   inkscape:export-xdpi="154.39"
   inkscape:export-ydpi="154.39"
   style="enable-background:new">
  <defs
     id="defs4">
    <linearGradient
       id="linearGradient4333"
       osb:paint="solid">
      <stop
         style="stop-color:#8da0cb;stop-opacity:1;"
         offset="0"
         id="stop4335" />
    </linearGradient>
    <linearGradient
       id="linearGradient4325"
       osb:paint="solid">
      <stop
         style="stop-color:#8aaad9;stop-opacity:0.94117647;"
         offset="0"
         id="stop4327" />
    </linearGradient>
    <linearGradient
       id="linearGradient4319"
       osb:paint="solid">
      <stop
         style="stop-color:#8da0cb;stop-opacity:0;"
         offset="0"
         id="stop4321" />
    </linearGradient>
    <clipPath
       id="clipPath3390"
       clipPathUnits="userSpaceOnUse">
      <path
         inkscape:connector-curvature="0"
         id="path3392"
         d="M 0,132 H 132 V 0 H 0 Z" />
    </clipPath>
  </defs>
  <sodipodi:namedview
     id="base"
     pagecolor="#ffffff"
     bordercolor="#666666"
     borderopacity="1.0"
     inkscape:pageopacity="0.0"
     inkscape:pageshadow="2"
     inkscape:zoom="0.27430556"
     inkscape:cx="198.68354"
     inkscape:cy="864"
     inkscape:document-units="px"
     inkscape:current-layer="layer5"
     showgrid="false"
     inkscape:window-width="1280"
     inkscape:window-height="687"
     inkscape:window-x="0"
     inkscape:window-y="1"
     inkscape:window-maximized="1"
     units="in"
     showborder="true" />
  <metadata
     id="metadata7">
    <rdf:RDF>
      <cc:Work
         rdf:about="">
        <dc:format>image/svg+xml</dc:format>
        <dc:type
           rdf:resource="http://purl.org/dc/dcmitype/StillImage" />
        <dc:title />
      </cc:Work>
    </rdf:RDF>
  </metadata>
  <g
     inkscape:groupmode="layer"
     id="layer1"
     inkscape:label="background"
     style="display:inline"
     transform="translate(0,1260)" />
  <g
     inkscape:groupmode="layer"
     id="layer2"
     inkscape:label="magpy"
     style="display:inline"
     transform="translate(0,1260)">
    <path
       inkscape:connector-curvature="0"
       id="path3396"
       style="fill:#000000;fill-opacity:1;fill-rule:evenodd;stroke:none;stroke-width:3.71706939;stroke-opacity:1"
       d="m 306.38433,-678.35534 c 0.13121,8.5822 7.27671,15.63404 15.81516,15.63404 8.93818,-0.0186 16.11495,-7.34546 15.92757,-16.2711 -0.17508,-8.53848 -7.33917,-15.64035 -15.82141,-15.70901 -8.78201,-0.075 -16.05246,7.38916 -15.92132,16.34607 m 539.05834,-233.34852 c -13.86642,0 -26.48353,0.39975 -39.06945,-0.1688 -6.50223,-0.28733 -8.91948,2.18615 -10.76831,8.0887 -21.66781,68.79473 -43.60413,137.50818 -65.44054,206.25914 -2.36729,7.45786 -4.55341,14.9844 -6.87694,22.61714 15.89009,1.96135 15.8776,1.96135 21.54279,-10.73077 26.82709,-60.21883 53.69162,-120.42502 80.50615,-180.65629 6.5397,-14.68465 13.0232,-29.40675 20.1063,-45.40926 m -571.2321,322.26833 c 31.87394,100.73106 143.79803,184.08541 273.46736,156.48387 130.69368,-27.82022 190.14417,-146.65252 187.46456,-224.91006 -22.11121,0 -44.25367,0.35609 -66.37741,-0.18734 -7.63274,-0.19961 -11.04937,1.95502 -13.76019,9.39414 -15.85887,43.61041 -40.63723,81.39315 -75.67789,112.09897 -28.54476,24.99071 -60.93088,43.07322 -98.98214,47.15817 -72.64856,7.79517 -133.66687,-16.5959 -182.79879,-70.49984 -8.00129,-8.76957 -14.79702,-18.65717 -23.3355,-29.53791 m 241.71214,177.64574 h -41.76153 v 7.45784 c 0,33.89142 0,67.77657 -0.007,101.68669 0,1.98629 0.74327,4.64087 -0.24979,5.84635 -2.2486,2.76706 -5.38413,6.70838 -8.11369,6.67088 -2.67332,-0.0439 -6.5397,-3.95381 -7.60772,-6.9769 -1.34299,-3.77264 -0.36836,-8.35735 -0.36836,-12.59217 -0.007,-32.91074 -0.0937,-65.80908 0.0937,-98.71355 0.0375,-4.88445 -1.30548,-6.67088 -6.36481,-7.63281 -110.50089,-21.03698 -193.51172,-110.94353 -205.86652,-222.68026 -0.67461,-6.13369 -0.93693,-12.30484 -1.4366,-19.13808 -6.85822,0 -13.0419,-0.0936 -19.22558,0.0334 -5.72768,0.11268 -10.75578,-0.74327 -11.11181,-7.89514 -0.27506,-5.58396 3.67897,-8.37601 11.53659,-8.4447 6.43347,-0.0439 12.86072,-0.002 19.18804,-0.002 8.53845,-70.9496 64.09139,-103.81672 108.1827,-106.25263 48.70714,-2.68584 102.6736,26.73953 119.33198,90.15637 7.32668,-1.91131 14.69083,-3.78516 22.0175,-5.77145 54.52239,-14.79078 109.02596,-29.62526 163.54207,-44.4036 9.66896,-2.62339 14.37844,1.193 13.37911,11.23053 -1.79884,18.03252 -4.01001,36.0213 -6.13997,54.98454 12.16125,0 25.02197,0.23715 37.84527,-0.29365 1.70513,-0.0688 3.92251,-3.84758 4.70328,-6.29605 17.02065,-53.06701 33.89139,-106.19646 50.75591,-159.31338 8.2074,-25.85265 16.55222,-51.6616 24.44732,-77.62044 2.22984,-7.37041 6.03373,-10.48097 13.88507,-10.30608 18.70089,0.4185 37.40176,0.11243 56.09014,0.14367 13.54783,0.0126 16.25237,4.12242 10.80574,16.3773 -33.82265,75.93399 -67.65791,151.85546 -101.46184,227.78322 -1.19302,2.70455 -2.27986,5.45284 -4.02246,9.58782 5.89004,0 10.93068,0 15.97129,0 5.55902,0.0148 9.42533,2.48589 9.40038,8.27609 -0.0439,5.75889 -3.79144,8.17614 -9.45662,8.06369 -6.69578,-0.13753 -13.37291,-0.0334 -19.35043,-0.0334 -15.2531,135.11571 -88.62616,216.3714 -222.05561,245.74684 v 6.46477 c 0,34.14745 0.002,68.30123 -0.0148,102.44248 0,2.48594 0.6433,5.64644 -0.59964,7.28296 -2.01123,2.6296 -5.42162,5.90256 -8.10745,5.79637 -2.64213,-0.11854 -5.59654,-3.77262 -7.50161,-6.50216 -1.06806,-1.53657 -0.3561,-4.34734 -0.3561,-6.58338 -0.007,-33.16693 0,-66.31502 0,-99.45693 v -9.11931 z" />
  </g>
  <g
     inkscape:groupmode="layer"
     id="layer3"
     inkscape:label="squared"
     style="display:inline"
     transform="translate(0,1260)" />
  <g
     inkscape:groupmode="layer"
     id="layer5"
     inkscape:label="pair night"
     style="display:inline"
     transform="translate(0,1260)">
    <text
       xml:space="preserve"
       style="font-style:normal;font-weight:normal;font-size:44.60483551px;line-height:0%;font-family:sans-serif;letter-spacing:0px;word-spacing:0px;fill:#000000;fill-opacity:1;stroke:none;stroke-width:3.71706939px;stroke-linecap:butt;stroke-linejoin:miter;stroke-opacity:1"
       x="213.80357"
       y="-125.27802"
       id="text4160"><tspan
         sodipodi:role="line"
         id="tspan4162"
         x="213.80357"
         y="-125.27802"
         style="font-size:185.85346985px;line-height:1.25;stroke-width:3.71706939px">madpy</tspan></text>
  </g>
</svg>
